<?xml version="1.0" encoding="UTF-8" standalone="no"?>
<svg width="60px" height="60px" viewBox="0 0 60 60" version="1.1" xmlns="http://www.w3.org/2000/svg" xmlns:xlink="http://www.w3.org/1999/xlink" xmlns:sketch="http://www.bohemiancoding.com/sketch/ns">
    <!-- Generator: Sketch 3.2.2 (9983) - http://www.bohemiancoding.com/sketch -->
    <title>iTunes</title>
    <desc>Created with Sketch.</desc>
    <defs></defs>
    <g id="stroked" stroke="none" stroke-width="1" fill="none" fill-rule="evenodd" sketch:type="MSPage">
        <g id="Brands" sketch:type="MSLayerGroup" transform="translate(-837.000000, -236.000000)" stroke="#f8fbf1" stroke-width="2">
            <g id="iTunes" transform="translate(839.000000, 239.000000)" sketch:type="MSShapeGroup">
                <circle id="Oval-1944" stroke-linecap="round" stroke-linejoin="round" cx="28" cy="28" r="28"></circle>
                <path d="M39.043955,40.81 C37.1651543,41.873 35.1745087,42.175 33.1161673,41.373 C31.4895086,40.739 30.3367197,39.634 30.065937,37.802 C29.8491146,36.331 30.3308332,35.053 31.3021191,33.968 C32.7933864,32.302 34.6829791,31.638 36.8561088,31.701 C37.475181,31.719 38.0707068,31.861 38.6603461,32.036 C38.872263,32.099 38.9899946,32.104 38.9899946,31.795 C38.9782215,27.811 38.9792026,23.827 38.9880324,19.843 C38.9890135,19.58 38.9105258,19.518 38.6691759,19.526 C36.6893223,19.592 34.7271285,19.841 32.7747456,20.158 C29.7451183,20.65 26.755716,21.339 23.8055575,22.199 C23.0471696,22.42 23.0501129,22.416 23.0353964,23.214 C22.9520032,27.64 23.0177367,32.067 23.0030202,36.493 C22.9990958,37.756 23.0059635,39.019 22.9755495,40.282 C22.9333623,42.063 22.1435793,43.466 20.7239321,44.455 C18.5292182,45.984 16.1863588,46.331 13.6825994,45.25 C13.0370376,44.971 12.4326819,44.671 11.9813774,44.114 C10.9266982,42.813 10.7707038,41.35 11.2818552,39.792 C11.6497666,38.669 12.3669484,37.798 13.3088015,37.124 C15.2631466,35.726 17.393108,35.389 19.6771016,36.071 C19.9488655,36.152 20.004788,36.116 20.004788,35.824 C19.9979203,28.72 19.9998825,21.616 20.0018447,14.512 C20.0018447,14.188 20.0008636,13.865 20.0391264,13.542 C20.0567862,13.391 20.1136898,13.324 20.2510433,13.269 C24.1901475,11.697 28.274454,10.7 32.4509836,10.09 C34.9635728,9.723 37.4967651,9.542 40.0289763,9.376 C40.5568064,9.341 41.0826744,9.295 41.6134478,9.307 C41.8763818,9.313 41.9450586,9.405 41.9499641,9.669 C42.030414,14.128 41.9735104,18.587 42,24.096 L42,35.774 C42,38.057 40.9590562,39.726 39.043955,40.81 L39.043955,40.81 Z" id="Path"></path>
            </g>
        </g>
    </g>
</svg>